<?xml version="1.0" encoding="iso-8859-1"?>
<!-- Generator: Adobe Illustrator 19.0.0, SVG Export Plug-In . SVG Version: 6.00 Build 0)  -->
<svg version="1.1" id="Capa_1" xmlns="http://www.w3.org/2000/svg" xmlns:xlink="http://www.w3.org/1999/xlink" x="0px" y="0px"
	 viewBox="0 0 512 512" style="enable-background:new 0 0 512 512;" xml:space="preserve">
<path style="fill:#444B66;" d="M345.282,441.035H166.718c0,0,17.636-19.089,17.636-68.491h143.292
	C327.646,421.945,345.282,441.035,345.282,441.035z"/>
<path style="fill:#3D435C;" d="M327.646,372.544h-31.421c0,49.402,17.636,68.491,17.636,68.491h31.421
	C345.282,441.035,327.646,421.945,327.646,372.544z"/>
<path style="fill:#444B66;" d="M470.804,382.13H41.196C18.444,382.13,0,363.685,0,340.933V88.696C0,65.944,18.444,47.5,41.196,47.5
	h429.608C493.556,47.5,512,65.944,512,88.696v252.237C512,363.685,493.556,382.13,470.804,382.13z"/>
<path style="fill:#3D435C;" d="M470.793,47.5h-30.905c22.758,0,41.207,18.439,41.207,41.185v252.259
	c0,22.746-18.449,41.185-41.207,41.185h30.905c22.758,0,41.207-18.439,41.207-41.185V88.685C512,65.939,493.551,47.5,470.793,47.5z"
	/>
<path style="fill:#6AD2EB;" d="M30.905,340.942V88.688c0-5.688,4.611-10.299,10.299-10.299h429.591
	c5.688,0,10.299,4.611,10.299,10.299v252.254c0,5.688-4.611,10.299-10.299,10.299H41.204
	C35.516,351.241,30.905,346.63,30.905,340.942z"/>
<path style="fill:#CBDAE0;" d="M470.804,382.13H41.196C18.444,382.13,0,363.685,0,340.933v-10.285h512v10.285
	C512,363.685,493.556,382.13,470.804,382.13z"/>
<path style="fill:#A8B5BA;" d="M481.095,330.648v10.296c0,22.746-18.449,41.185-41.207,41.185h30.905
	c22.758,0,41.207-18.439,41.207-41.185v-10.296H481.095z"/>
<path style="fill:#CBDAE0;" d="M378.6,464.5H133.4c-8.53,0-15.444-6.915-15.444-15.444l0,0c0-8.53,6.915-15.444,15.444-15.444h245.2
	c8.53,0,15.444,6.915,15.444,15.444l0,0C394.044,457.585,387.13,464.5,378.6,464.5z"/>
<path style="fill:#A8B5BA;" d="M378.592,433.611h-31.034c8.534,0,15.453,6.915,15.453,15.444c0,8.53-6.918,15.444-15.453,15.444
	h31.034c8.534,0,15.453-6.915,15.453-15.444C394.044,440.526,387.126,433.611,378.592,433.611z"/>
<g>
	<path style="fill:#444B66;" d="M304.813,267.374h-97.625c-12.254,0-22.188-9.934-22.188-22.188v-97.625
		c0-12.254,9.934-22.188,22.188-22.188h97.625c12.254,0,22.188,9.934,22.188,22.188v97.625
		C327,257.44,317.066,267.374,304.813,267.374z"/>
	<path style="fill:#444B66;" d="M341.333,295.546H170.667c-4.143,0-7.5,3.357-7.5,7.5s3.357,7.5,7.5,7.5h170.666
		c4.143,0,7.5-3.357,7.5-7.5S345.476,295.546,341.333,295.546z"/>
</g>
<g>
	<circle style="fill:#EC5569;" cx="256" cy="181.95" r="23.297"/>
	<path style="fill:#EC5569;" d="M287.063,267.374h-62.125v-31.063c0-17.155,13.907-31.062,31.062-31.062l0,0
		c17.155,0,31.062,13.907,31.062,31.062v31.063H287.063z"/>
</g>
<g>
</g>
<g>
</g>
<g>
</g>
<g>
</g>
<g>
</g>
<g>
</g>
<g>
</g>
<g>
</g>
<g>
</g>
<g>
</g>
<g>
</g>
<g>
</g>
<g>
</g>
<g>
</g>
<g>
</g>
</svg>
