<svg enable-background="new 0 0 510.641 510.641" height="510.641" width="510.641" xmlns="http://www.w3.org/2000/svg" style=""><rect id="backgroundrect" width="100%" height="100%" x="0" y="0" fill="none" stroke="none"/><g class="currentLayer" style=""><title>Layer 1</title><g id="svg_1" class="" fill-opacity="1" fill="#ffbf00"><path d="m98.40546023542356,161.54423523390687 v185.17055641491788 l172.3907191379385,92.58527820745894 l172.3907191379385,-92.58527820745894 v-185.17055641491788 l-172.3907191379385,-92.58527820745894 zm296.63286753493594,8.619620930667907 l-124.24214023360491,66.72641921236573 l-124.24107082918454,-66.72641921236573 l124.24107082918454,-66.72641921236573 zm-264.53310199576663,25.859859481011313 l124.24107082918454,66.72542442181339 v133.4518360403581 l-124.24107082918454,-66.72542442181339 zm156.34083636835385,200.17825525272383 v-133.45283842473145 l124.24107082918454,-66.72542442181339 v133.4518360403581 z" id="svg_2" fill="#ffbf00"/><path d="m270.7961875367546,34.47947851322397 l71.1576884917531,38.21597637529317 l16.049882769584656,-25.85886279200372 l-87.20757126133776,-46.836592096513414 l-87.20650185691738,46.836592096513414 l16.049882769584656,25.85886279200372 z" id="svg_3" fill="#ffbf00"/><path d="m66.30569469625425,144.30399858201872 l71.1576884917531,-38.21597637529317 l-16.049882769584656,-25.859859481011313 l-87.20757126133776,46.836592096513414 v93.67218940247449 h32.09976553916931 z" id="svg_4" fill="#ffbf00"/><path d="m66.30569469625425,287.5230831439476 h-32.09976553916931 v93.67119461192215 l87.20757126133776,46.836592096513414 l16.049882769584656,-25.85886279200372 l-71.1576884917531,-38.21697116584551 z" id="svg_5" fill="#ffbf00"/><path d="m270.7961875367546,473.780558347702 l-71.15661908733273,-38.21697116584551 l-16.049882769584656,25.859859481011313 l87.20650185691738,46.836592096513414 l87.20757126133776,-46.836592096513414 l-16.049882769584656,-25.859859481011313 z" id="svg_6" fill="#ffbf00"/><path d="m475.28665588707736,363.95504348835493 l-71.15661908733273,38.21697116584551 l16.049882769584656,25.85886279200372 l87.20650185691738,-46.836592096513414 v-93.67119461192215 h-32.09976553916931 z" id="svg_7" fill="#ffbf00"/><path d="m420.17993589611433,80.2281646241695 l-16.049882769584656,25.859859481011313 l71.15661908733273,38.21597637529317 v76.43294754113867 h32.09976553916931 v-93.67218940247449 z" id="svg_8" fill="#ffbf00"/></g></g></svg>