<svg enable-background="new 0 0 512 512" height="512" width="512" xmlns="http://www.w3.org/2000/svg"><rect id="backgroundrect" width="100%" height="100%" x="0" y="0" fill="none" stroke="none"/><g class="currentLayer" style=""><title>Layer 1</title><g id="svg_1" class="" fill-opacity="1" fill="#ffbf00"><path d="m477.3760070800781,306.92629086971283 h-78.53199768066406 v-32.90399932861328 c0,-18.312999725341797 -14.89900016784668,-33.2130012512207 -33.2130012512207,-33.2130012512207 h-82.60199737548828 c-2.9170000553131104,-7.860000133514404 -9.168999671936035,-14.112000465393066 -17.02899932861328,-17.02899932861328 v-15.531000137329102 h78.53199768066406 c19.090999603271484,0 34.624000549316406,-15.531999588012695 34.624000549316406,-34.624000549316406 c0,-16.452999114990234 0,-118.74199676513672 0,-134.69900512695312 c0,-19.090999603271484 -15.531999588012695,-34.624000549316406 -34.624000549316406,-34.624000549316406 h-177.06399536132812 c-19.090999603271484,0 -34.624000549316406,15.531999588012695 -34.624000549316406,34.624000549316406 v134.69900512695312 c0,19.090999603271484 15.531999588012695,34.624000549316406 34.624000549316406,34.624000549316406 h78.53199768066406 v15.531000137329102 c-7.860000133514404,2.9170000553131104 -14.112000465393066,9.168999671936035 -17.02899932861328,17.02899932861328 h-82.60199737548828 c-18.312999725341797,0 -33.2130012512207,14.89900016784668 -33.2130012512207,33.2130012512207 v32.90399932861328 h-78.53199768066406 c-19.091999053955078,0 -34.624000549316406,15.531999588012695 -34.624000549316406,34.62300109863281 v134.69900512695312 c0,19.090999603271484 15.531999588012695,34.624000549316406 34.624000549316406,34.624000549316406 h177.06399536132812 c19.090999603271484,0 34.62300109863281,-15.531999588012695 34.62300109863281,-34.624000549316406 c0,-16.452999114990234 0,-118.74199676513672 0,-134.69900512695312 c0,-19.090999603271484 -15.531999588012695,-34.624000549316406 -34.62300109863281,-34.624000549316406 h-78.53199768066406 v-32.90399932861328 c0,-7.285999774932861 5.927000045776367,-13.213000297546387 13.213000297546387,-13.213000297546387 h82.60199737548828 c4.073999881744385,10.97700023651123 14.652000427246094,18.81999969482422 27.02899932861328,18.81999969482422 s22.954999923706055,-7.843999862670898 27.02899932861328,-18.81999969482422 h82.60199737548828 c7.285999774932861,0 13.213000297546387,5.927000045776367 13.213000297546387,13.213000297546387 v32.90399932861328 h-78.53199768066406 c-19.090999603271484,0 -34.62300109863281,15.531999588012695 -34.62300109863281,34.624000549316406 v134.69900512695312 c0,19.090999603271484 15.531999588012695,34.624000549316406 34.62300109863281,34.624000549316406 h177.06399536132812 c19.090999603271484,0 34.624000549316406,-15.531999588012695 34.624000549316406,-34.624000549316406 c0,-16.452999114990234 0,-118.74199676513672 0,-134.69900512695312 c0,-19.090999603271484 -15.531999588012695,-34.62300109863281 -34.624000549316406,-34.62300109863281 zm-251.06500244140625,169.32200622558594 c0,8.062999725341797 -6.559999942779541,14.62399959564209 -14.623000144958496,14.62399959564209 h-177.06399536132812 c-8.062999725341797,0 -14.62399959564209,-6.559999942779541 -14.62399959564209,-14.62399959564209 v-98.58100128173828 h206.31100463867188 zm-14.623000144958496,-149.32200622558594 c8.062999725341797,0 14.623000144958496,6.559999942779541 14.623000144958496,14.62399959564209 v16.118000030517578 h-206.31100463867188 v-16.118000030517578 c0,-8.062999725341797 6.559999942779541,-14.62399959564209 14.62399959564209,-14.62399959564209 zm-44.220001220703125,-138.67799377441406 c-8.062999725341797,0 -14.62399959564209,-6.559999942779541 -14.62399959564209,-14.62399959564209 v-98.58000183105469 h8.947999954223633 c5.5229997634887695,0 10,-4.4770002365112305 10,-10 s-4.4770002365112305,-10 -10,-10 h-8.947999954223633 v-16.118000030517578 c0,-8.062999725341797 6.559999942779541,-14.62399959564209 14.62399959564209,-14.62399959564209 h177.06399536132812 c8.062999725341797,0 14.62399959564209,6.559999942779541 14.62399959564209,14.62399959564209 v16.118000030517578 h-117.36399841308594 c-5.5229997634887695,0 -10,4.4770002365112305 -10,10 s4.4770002365112305,10 10,10 h117.36299896240234 v98.58100128173828 c0,8.062999725341797 -6.559999942779541,14.62399959564209 -14.62399959564209,14.62399959564209 h-177.06300354003906 zm88.53199768066406,71.38099670410156 c-4.863999843597412,0 -8.819999694824219,-3.9570000171661377 -8.819999694824219,-8.819999694824219 s3.9570000171661377,-8.821000099182129 8.819999694824219,-8.821000099182129 s8.819999694824219,3.9570000171661377 8.819999694824219,8.821000099182129 s-3.9560000896453857,8.819999694824219 -8.819999694824219,8.819999694824219 zm236,216.61900329589844 c0,8.062999725341797 -6.559999942779541,14.62399959564209 -14.62399959564209,14.62399959564209 h-177.06399536132812 c-8.062999725341797,0 -14.623000144958496,-6.559999942779541 -14.623000144958496,-14.62399959564209 v-98.58100128173828 h206.31100463867188 zm0,-118.58100128173828 h-206.31100463867188 v-16.118000030517578 c0,-8.062999725341797 6.559999942779541,-14.62399959564209 14.623000144958496,-14.62399959564209 h177.06399536132812 c8.062999725341797,0 14.62399959564209,6.559999942779541 14.62399959564209,14.62399959564209 z" id="svg_2" fill="#ffbf00"/><path d="m256,83.58730161190033 c-25.916000366210938,0 -47,21.083999633789062 -47,47 s21.083999633789062,47 47,47 s47,-21.083999633789062 47,-47 s-21.083999633789062,-47 -47,-47 zm0,74 c-14.887999534606934,0 -27,-12.112000465393066 -27,-27 s12.112000465393066,-27 27,-27 s27,12.112000465393066 27,27 s-12.112000465393066,27 -27,27 z" id="svg_3" fill="#ffbf00"/><path d="m78.427001953125,474.70229184627533 h89.45800018310547 c7.939000129699707,0 12.72700023651123,-8.847999572753906 8.354000091552734,-15.496000289916992 l-44.729000091552734,-68 c-3.943000078201294,-5.995999813079834 -12.760000228881836,-6.004000186920166 -16.708999633789062,0 l-44.729000091552734,68 c-4.355000019073486,6.622000217437744 0.38100001215934753,15.496000289916992 8.354999542236328,15.496000289916992 zm44.729000091552734,-59.803001403808594 l26.180999755859375,39.803001403808594 h-52.362998962402344 z" id="svg_4" fill="#ffbf00"/><path d="m354.9219970703125,478.43129575252533 h67.84400177001953 c5.5229997634887695,0 10,-4.4770002365112305 10,-10 v-67.84400177001953 c0,-5.5229997634887695 -4.4770002365112305,-10 -10,-10 h-67.84400177001953 c-5.5229997634887695,0 -10,4.4770002365112305 -10,10 v67.84400177001953 c0,5.5229997634887695 4.4770002365112305,10 10,10 zm10,-67.84400177001953 h47.84400177001953 v47.84400177001953 h-47.84400177001953 z" id="svg_5" fill="#ffbf00"/><path d="m201.81700134277344,55.044302344322205 h-0.02500000037252903 c-5.5229997634887695,0 -9.987000465393066,4.4770002365112305 -9.987000465393066,10 s4.488999843597412,10 10.01200008392334,10 s10,-4.4770002365112305 10,-10 s-4.4770002365112305,-10 -10,-10 z" id="svg_6" fill="#ffbf00"/></g></g></svg>