<?xml version="1.0" encoding="iso-8859-1"?>
<!-- Generator: Adobe Illustrator 19.0.0, SVG Export Plug-In . SVG Version: 6.00 Build 0)  -->
<svg version="1.1" id="Capa_1" xmlns="http://www.w3.org/2000/svg" xmlns:xlink="http://www.w3.org/1999/xlink" x="0px" y="0px"
	 viewBox="0 0 512 512" style="enable-background:new 0 0 512 512;" xml:space="preserve">
<g>
	<path style="fill:#444B66;" d="M489.188,428.5H355.264V72.494c0-2.206,1.788-3.994,3.994-3.994h125.935
		c2.206,0,3.994,1.788,3.994,3.994V428.5H489.188z"/>
	<path style="fill:#444B66;" d="M322.962,428.5H189.038V72.494c0-2.206,1.788-3.994,3.994-3.994h125.935
		c2.206,0,3.994,1.788,3.994,3.994V428.5H322.962z"/>
</g>
<path style="fill:#6E6B87;" d="M159.163,428.5H25.239V72.494c0-2.206,1.788-3.994,3.994-3.994h125.935
	c2.206,0,3.994,1.788,3.994,3.994L159.163,428.5L159.163,428.5z"/>
<path style="fill:#444B66;" d="M159.163,428.5H25.239V72.494c0-2.206,1.788-3.994,3.994-3.994h125.935
	c2.206,0,3.994,1.788,3.994,3.994L159.163,428.5L159.163,428.5z"/>
<g>
	<path style="fill:#3D435C;" d="M159.163,428.5h-30.905v-360h26.911c2.206,0,3.994,1.788,3.994,3.994V428.5z"/>
	<path style="fill:#3D435C;" d="M322.962,428.5h-30.905v-360h26.911c2.206,0,3.994,1.788,3.994,3.994V428.5z"/>
	<path style="fill:#3D435C;" d="M489.188,428.5h-30.905v-360h26.911c2.206,0,3.994,1.788,3.994,3.994V428.5z"/>
</g>
<path style="fill:#AC6A51;" d="M497,443.5H15c-8.284,0-15-6.716-15-15l0,0c0-8.284,6.716-15,15-15h482c8.284,0,15,6.716,15,15l0,0
	C512,436.784,505.284,443.5,497,443.5z"/>
<path style="fill:#945B44;" d="M496.547,413.5h-31.034c8.534,0,15.453,6.716,15.453,15s-6.918,15-15.453,15h31.034
	c8.534,0,15.453-6.716,15.453-15S505.082,413.5,496.547,413.5z"/>
<rect x="189.04" y="279.29" style="fill:#FAD87C;" width="133.92" height="100.96"/>
<rect x="292.33" y="279.29" style="fill:#FEBE40;" width="30.905" height="100.96"/>
<rect x="189.04" y="109.69" style="fill:#FAD87C;" width="133.92" height="144.22"/>
<rect x="292.06" y="109.69" style="fill:#FEBE40;" width="30.905" height="144.22"/>
<path style="fill:#6AD2EB;" d="M288.056,169.014h-64.113c-2.209,0-4-1.791-4-4v-22.905c0-2.209,1.791-4,4-4h64.113
	c2.209,0,4,1.791,4,4v22.905C292.056,167.224,290.265,169.014,288.056,169.014z"/>
<path style="fill:#EC5569;" d="M288.056,225.674h-64.113c-2.209,0-4-1.791-4-4v-22.905c0-2.209,1.791-4,4-4h64.113
	c2.209,0,4,1.791,4,4v22.905C292.056,223.884,290.265,225.674,288.056,225.674z"/>
<g>
	<rect x="355.26" y="110.34" style="fill:#FAD87C;" width="133.92" height="100.96"/>
	<rect x="355.26" y="236.02" style="fill:#FAD87C;" width="133.92" height="144.22"/>
</g>
<path style="fill:#6AD2EB;" d="M454.283,295.254H390.17c-2.209,0-4-1.791-4-4v-22.905c0-2.209,1.791-4,4-4h64.113
	c2.209,0,4,1.791,4,4v22.905C458.283,293.463,456.492,295.254,454.283,295.254z"/>
<path style="fill:#EC5569;" d="M454.283,351.914H390.17c-2.209,0-4-1.791-4-4v-22.905c0-2.209,1.791-4,4-4h64.113
	c2.209,0,4,1.791,4,4v22.905C458.283,350.123,456.492,351.914,454.283,351.914z"/>
<rect x="25.24" y="110.34" style="fill:#FAD87C;" width="133.92" height="100.96"/>
<g>
	<rect x="128.26" y="110.34" style="fill:#FEBE40;" width="30.905" height="100.96"/>
	<rect x="458.28" y="110.34" style="fill:#FEBE40;" width="30.905" height="100.96"/>
</g>
<rect x="25.24" y="236.02" style="fill:#FAD87C;" width="133.92" height="144.22"/>
<g>
	<rect x="128.26" y="236.02" style="fill:#FEBE40;" width="30.905" height="144.22"/>
	<rect x="458.28" y="236.02" style="fill:#FEBE40;" width="30.905" height="144.22"/>
</g>
<path style="fill:#6AD2EB;" d="M124.258,295.254H60.145c-2.209,0-4-1.791-4-4v-22.905c0-2.209,1.791-4,4-4h64.113
	c2.209,0,4,1.791,4,4v22.905C128.258,293.463,126.467,295.254,124.258,295.254z"/>
<path style="fill:#EC5569;" d="M124.258,351.914H60.145c-2.209,0-4-1.791-4-4v-22.905c0-2.209,1.791-4,4-4h64.113
	c2.209,0,4,1.791,4,4v22.905C128.258,350.123,126.467,351.914,124.258,351.914z"/>
<g>
	<circle style="fill:#444B66;" cx="387.19" cy="139.83" r="8.403"/>
	<circle style="fill:#444B66;" cx="387.19" cy="160.81" r="8.403"/>
	<circle style="fill:#444B66;" cx="387.19" cy="181.8" r="8.403"/>
	<path style="fill:#444B66;" d="M415.484,147.332h46.724c4.143,0,7.5-3.358,7.5-7.5s-3.357-7.5-7.5-7.5h-46.724
		c-4.143,0-7.5,3.358-7.5,7.5S411.342,147.332,415.484,147.332z"/>
	<path style="fill:#444B66;" d="M462.208,153.315h-46.724c-4.143,0-7.5,3.358-7.5,7.5s3.357,7.5,7.5,7.5h46.724
		c4.143,0,7.5-3.358,7.5-7.5S466.351,153.315,462.208,153.315z"/>
	<path style="fill:#444B66;" d="M462.208,174.391h-46.724c-4.143,0-7.5,3.358-7.5,7.5s3.357,7.5,7.5,7.5h46.724
		c4.143,0,7.5-3.358,7.5-7.5S466.351,174.391,462.208,174.391z"/>
	<circle style="fill:#444B66;" cx="222.69" cy="310.5" r="8.403"/>
	<circle style="fill:#444B66;" cx="222.69" cy="331.48" r="8.403"/>
	<circle style="fill:#444B66;" cx="222.69" cy="352.46" r="8.403"/>
	<path style="fill:#444B66;" d="M297.708,302.999h-46.723c-4.143,0-7.5,3.358-7.5,7.5s3.357,7.5,7.5,7.5h46.723
		c4.143,0,7.5-3.358,7.5-7.5S301.851,302.999,297.708,302.999z"/>
	<path style="fill:#444B66;" d="M297.708,323.982h-46.723c-4.143,0-7.5,3.358-7.5,7.5s3.357,7.5,7.5,7.5h46.723
		c4.143,0,7.5-3.358,7.5-7.5S301.851,323.982,297.708,323.982z"/>
	<path style="fill:#444B66;" d="M297.708,345.058h-46.723c-4.143,0-7.5,3.358-7.5,7.5s3.357,7.5,7.5,7.5h46.723
		c4.143,0,7.5-3.358,7.5-7.5S301.851,345.058,297.708,345.058z"/>
	<circle style="fill:#444B66;" cx="57.18" cy="139.83" r="8.403"/>
	<circle style="fill:#444B66;" cx="57.18" cy="160.81" r="8.403"/>
	<circle style="fill:#444B66;" cx="57.18" cy="181.8" r="8.403"/>
	<path style="fill:#444B66;" d="M132.192,132.332H85.47c-4.143,0-7.5,3.358-7.5,7.5s3.357,7.5,7.5,7.5h46.723
		c4.143,0,7.5-3.358,7.5-7.5S136.335,132.332,132.192,132.332z"/>
	<path style="fill:#444B66;" d="M132.192,153.315H85.47c-4.143,0-7.5,3.358-7.5,7.5s3.357,7.5,7.5,7.5h46.723
		c4.143,0,7.5-3.358,7.5-7.5S136.335,153.315,132.192,153.315z"/>
	<path style="fill:#444B66;" d="M132.192,174.391H85.47c-4.143,0-7.5,3.358-7.5,7.5s3.357,7.5,7.5,7.5h46.723
		c4.143,0,7.5-3.358,7.5-7.5S136.335,174.391,132.192,174.391z"/>
</g>
<g>
</g>
<g>
</g>
<g>
</g>
<g>
</g>
<g>
</g>
<g>
</g>
<g>
</g>
<g>
</g>
<g>
</g>
<g>
</g>
<g>
</g>
<g>
</g>
<g>
</g>
<g>
</g>
<g>
</g>
</svg>
