<?xml version="1.0" encoding="iso-8859-1"?>
<!-- Generator: Adobe Illustrator 19.0.0, SVG Export Plug-In . SVG Version: 6.00 Build 0)  -->
<svg version="1.1" id="Capa_1" xmlns="http://www.w3.org/2000/svg" xmlns:xlink="http://www.w3.org/1999/xlink" x="0px" y="0px"
	 viewBox="0 0 512.004 512.004" style="enable-background:new 0 0 512.004 512.004;" xml:space="preserve">
<path style="fill:#444B66;" d="M411.485,480.148l-148.808-48.702V88.596c0-4.142-3.358-7.5-7.5-7.5s-7.5,3.358-7.5,7.5v342.85
	L98.869,480.148c-3.937,1.289-6.083,5.524-4.795,9.461c1.288,3.936,5.523,6.083,9.461,4.795l151.643-49.629l151.642,49.629
	c0.775,0.253,1.561,0.374,2.334,0.374c3.155,0,6.092-2.007,7.126-5.169C417.569,485.672,415.422,481.437,411.485,480.148z"/>
<g>
	<circle style="fill:#EC5569;" cx="101.202" cy="487.28" r="24.724"/>
	<circle style="fill:#EC5569;" cx="409.152" cy="487.28" r="24.724"/>
</g>
<path style="fill:#6E6B87;" d="M438.562,103.018H72.413c-7.959,0-14.411-6.452-14.411-14.411V14.411C58.002,6.452,64.454,0,72.413,0
	h366.149c7.959,0,14.411,6.452,14.411,14.411v74.196C452.973,96.566,446.521,103.018,438.562,103.018z"/>
<path style="fill:#625F78;" d="M438.573,0h-30.857c7.953,0,14.4,6.457,14.4,14.423v74.173c0,7.965-6.447,14.423-14.4,14.423h30.857
	c7.953,0,14.4-6.457,14.4-14.423V14.423C452.973,6.457,446.526,0,438.573,0z"/>
<path style="fill:#6E6B87;" d="M438.562,239.002H72.413c-7.959,0-14.411-6.452-14.411-14.411v-74.196
	c0-7.959,6.452-14.411,14.411-14.411h366.149c7.959,0,14.411,6.452,14.411,14.411v74.196
	C452.973,232.55,446.521,239.002,438.562,239.002z"/>
<path style="fill:#625F78;" d="M438.573,135.984h-30.857c7.953,0,14.4,6.457,14.4,14.423v74.173c0,7.965-6.447,14.423-14.4,14.423
	h30.857c7.953,0,14.4-6.457,14.4-14.423v-74.173C452.973,142.441,446.526,135.984,438.573,135.984z"/>
<path style="fill:#6E6B87;" d="M439.591,374.986H73.442c-7.959,0-14.411-6.452-14.411-14.411v-74.196
	c0-7.959,6.452-14.411,14.411-14.411h366.149c7.959,0,14.411,6.452,14.411,14.411v74.196
	C454.002,368.534,447.55,374.986,439.591,374.986z"/>
<path style="fill:#625F78;" d="M439.602,271.968h-30.857c7.953,0,14.4,6.457,14.4,14.423v74.173c0,7.965-6.447,14.423-14.4,14.423
	h30.857c7.953,0,14.4-6.457,14.4-14.423V286.39C454.002,278.425,447.555,271.968,439.602,271.968z"/>
<g>
	<circle style="fill:#7ACBDE;" cx="120.742" cy="50.48" r="15.453"/>
	<circle style="fill:#7ACBDE;" cx="120.742" cy="187.49" r="15.453"/>
	<circle style="fill:#7ACBDE;" cx="120.742" cy="323.48" r="15.453"/>
</g>
<path style="fill:#FAD87C;" d="M311.322,66.962H243.33c-1.138,0-2.06-0.922-2.06-2.06V38.117c0-1.138,0.922-2.06,2.06-2.06h67.992
	c1.138,0,2.06,0.922,2.06,2.06v26.785C313.382,66.039,312.46,66.962,311.322,66.962z"/>
<path style="fill:#FEBE40;" d="M311.322,36.056h-30.905c1.138,0,2.06,0.922,2.06,2.06v26.785c0,1.138-0.922,2.06-2.06,2.06h30.905
	c1.138,0,2.06-0.922,2.06-2.06V38.117C313.382,36.979,312.46,36.056,311.322,36.056z"/>
<path style="fill:#FAD87C;" d="M410.219,66.962h-67.992c-1.138,0-2.06-0.922-2.06-2.06V38.117c0-1.138,0.922-2.06,2.06-2.06h67.992
	c1.138,0,2.06,0.922,2.06,2.06v26.785C412.28,66.039,411.357,66.962,410.219,66.962z"/>
<path style="fill:#FEBE40;" d="M410.219,36.056h-30.905c1.138,0,2.06,0.922,2.06,2.06v26.785c0,1.138-0.922,2.06-2.06,2.06h30.905
	c1.138,0,2.06-0.922,2.06-2.06V38.117C412.28,36.979,411.357,36.056,410.219,36.056z"/>
<path style="fill:#FAD87C;" d="M311.322,202.946H243.33c-1.138,0-2.06-0.922-2.06-2.06v-26.785c0-1.138,0.922-2.06,2.06-2.06h67.992
	c1.138,0,2.06,0.922,2.06,2.06v26.785C313.382,202.023,312.46,202.946,311.322,202.946z"/>
<path style="fill:#FEBE40;" d="M311.322,172.04h-30.905c1.138,0,2.06,0.922,2.06,2.06v26.785c0,1.138-0.922,2.06-2.06,2.06h30.905
	c1.138,0,2.06-0.922,2.06-2.06V174.1C313.382,172.963,312.46,172.04,311.322,172.04z"/>
<path style="fill:#FAD87C;" d="M410.219,202.946h-67.992c-1.138,0-2.06-0.922-2.06-2.06v-26.785c0-1.138,0.922-2.06,2.06-2.06
	h67.992c1.138,0,2.06,0.922,2.06,2.06v26.785C412.28,202.023,411.357,202.946,410.219,202.946z"/>
<path style="fill:#FEBE40;" d="M410.219,172.04h-30.905c1.138,0,2.06,0.922,2.06,2.06v26.785c0,1.138-0.922,2.06-2.06,2.06h30.905
	c1.138,0,2.06-0.922,2.06-2.06V174.1C412.28,172.963,411.357,172.04,410.219,172.04z"/>
<path style="fill:#FAD87C;" d="M311.322,336.869H243.33c-1.138,0-2.06-0.922-2.06-2.06v-26.785c0-1.138,0.922-2.06,2.06-2.06h67.992
	c1.138,0,2.06,0.922,2.06,2.06v26.785C313.382,335.947,312.46,336.869,311.322,336.869z"/>
<path style="fill:#FEBE40;" d="M311.322,305.964h-30.905c1.138,0,2.06,0.922,2.06,2.06v26.785c0,1.138-0.922,2.06-2.06,2.06h30.905
	c1.138,0,2.06-0.922,2.06-2.06v-26.785C313.382,306.886,312.46,305.964,311.322,305.964z"/>
<path style="fill:#FAD87C;" d="M410.219,336.869h-67.992c-1.138,0-2.06-0.922-2.06-2.06v-26.785c0-1.138,0.922-2.06,2.06-2.06
	h67.992c1.138,0,2.06,0.922,2.06,2.06v26.785C412.28,335.947,411.357,336.869,410.219,336.869z"/>
<path style="fill:#FEBE40;" d="M410.219,305.964h-30.905c1.138,0,2.06,0.922,2.06,2.06v26.785c0,1.138-0.922,2.06-2.06,2.06h30.905
	c1.138,0,2.06-0.922,2.06-2.06v-26.785C412.28,306.886,411.357,305.964,410.219,305.964z"/>
<g>
</g>
<g>
</g>
<g>
</g>
<g>
</g>
<g>
</g>
<g>
</g>
<g>
</g>
<g>
</g>
<g>
</g>
<g>
</g>
<g>
</g>
<g>
</g>
<g>
</g>
<g>
</g>
<g>
</g>
</svg>
